<svg width="23" height="15" viewBox="0 0 23 15" fill="none" xmlns="http://www.w3.org/2000/svg">
<path fill-rule="evenodd" clip-rule="evenodd" d="M22.4353 7.19625C22.4025 7.12219 21.6084 5.36062 19.8431 3.59531C17.4909 1.24312 14.52 0 11.25 0C7.98 0 5.00906 1.24312 2.65687 3.59531C0.891562 5.36062 0.09375 7.125 0.0646875 7.19625C-0.0215505 7.39022 -0.0215505 7.61165 0.0646875 7.80562C0.0975 7.87969 0.891562 9.64031 2.65687 11.4056C5.00906 13.7569 7.98 15 11.25 15C14.52 15 17.4909 13.7569 19.8431 11.4056C21.6084 9.64031 22.4025 7.87969 22.4353 7.80562C22.5216 7.61165 22.5216 7.39022 22.4353 7.19625ZM11.25 13.5C8.36438 13.5 5.84344 12.4509 3.75656 10.3828C2.90029 9.53128 2.1718 8.56027 1.59375 7.5C2.17165 6.43963 2.90015 5.4686 3.75656 4.61719C5.84344 2.54906 8.36438 1.5 11.25 1.5C14.1356 1.5 16.6566 2.54906 18.7434 4.61719C19.6014 5.4684 20.3315 6.43942 20.9109 7.5C20.235 8.76188 17.2903 13.5 11.25 13.5ZM11.25 3C8.76472 3 6.75 5.01472 6.75 7.5C6.75 9.98528 8.76472 12 11.25 12C13.7353 12 15.75 9.98528 15.75 7.5C15.7474 5.01579 13.7342 3.00258 11.25 3ZM11.25 10.5C9.59315 10.5 8.25 9.15685 8.25 7.5C8.25 5.84315 9.59315 4.5 11.25 4.5C12.9069 4.5 14.25 5.84315 14.25 7.5C14.25 9.15685 12.9069 10.5 11.25 10.5Z" fill="#61758A"/>
</svg>
